<svg width="1280" height="520" viewBox="0 0 1280 520" xmlns="http://www.w3.org/2000/svg">
  <defs><linearGradient id="a" x1="0" y1="0" x2="1" y2="0"><stop offset="0" stop-color="#22d3ee"/><stop offset="1" stop-color="#8b5cf6"/></linearGradient></defs>
  <rect width="1280" height="520" rx="30" fill="#0b1220"/>
  <text x="70" y="82" fill="#f8fafc" font-family="Inter,Arial" font-size="34" font-weight="700">Dossier reporting flow</text>
  <text x="70" y="116" fill="#94a3b8" font-family="Inter,Arial" font-size="17">Normalize findings, calculate risk, build sections, and export stakeholder-ready reports.</text>
  <g font-family="Inter,Arial" font-size="18" font-weight="700">
    <rect x="86" y="210" width="210" height="124" rx="22" fill="#111827" stroke="#26324a"/><text x="132" y="280" fill="#e5e7eb">Analyzer JSON</text>
    <rect x="386" y="210" width="210" height="124" rx="22" fill="#111827" stroke="#26324a"/><text x="425" y="280" fill="#e5e7eb">Normalize</text>
    <rect x="686" y="210" width="210" height="124" rx="22" fill="#111827" stroke="#26324a"/><text x="728" y="280" fill="#e5e7eb">Build report</text>
    <rect x="986" y="210" width="210" height="124" rx="22" fill="#111827" stroke="#26324a"/><text x="1034" y="280" fill="#e5e7eb">Export</text>
  </g>
  <path d="M312 272 L366 272" stroke="url(#a)" stroke-width="8" stroke-linecap="round"/>
  <path d="M612 272 L666 272" stroke="url(#a)" stroke-width="8" stroke-linecap="round"/>
  <path d="M912 272 L966 272" stroke="url(#a)" stroke-width="8" stroke-linecap="round"/>
  <text x="136" y="374" fill="#94a3b8" font-family="Inter,Arial" font-size="15">Podscope, Dockyard, Gatehouse, Stacklint, Tracepack, Cloudline</text>
  <text x="429" y="374" fill="#94a3b8" font-family="Inter,Arial" font-size="15">Stable finding schema</text>
  <text x="714" y="374" fill="#94a3b8" font-family="Inter,Arial" font-size="15">Executive + technical</text>
  <text x="1016" y="374" fill="#94a3b8" font-family="Inter,Arial" font-size="15">Markdown + HTML</text>
</svg>
