<svg xmlns="http://www.w3.org/2000/svg" viewBox="0 0 1200 720" font-family="Inter, Segoe UI, Arial, sans-serif">
  <defs>
    <linearGradient id="bg" x1="0" y1="0" x2="1" y2="1">
      <stop offset="0" stop-color="#0a1322"/>
      <stop offset="1" stop-color="#070d18"/>
    </linearGradient>
    <linearGradient id="accent" x1="0" y1="0" x2="1" y2="0">
      <stop offset="0" stop-color="#5ec8ff"/>
      <stop offset="1" stop-color="#a78bfa"/>
    </linearGradient>
  </defs>
  <rect width="1200" height="720" fill="url(#bg)"/>

  <rect x="0" y="0" width="240" height="720" fill="#0b1322"/>
  <line x1="240" y1="0" x2="240" y2="720" stroke="#1f2c45"/>
  <rect x="28" y="32" width="40" height="40" rx="12" fill="url(#accent)"/>
  <text x="48" y="58" fill="#07101f" font-size="20" font-weight="800" text-anchor="middle">D</text>
  <text x="80" y="50" fill="#e8eef9" font-size="17" font-weight="700">Dossier</text>
  <text x="80" y="68" fill="#93a3bd" font-size="11">Reporting engine</text>
  <rect x="20" y="108" width="200" height="36" rx="10" fill="#102544" stroke="#2d4d76"/>
  <text x="40" y="131" fill="#eaf6ff" font-size="13">Report Workbench</text>
  <text x="40" y="172" fill="#93a3bd" font-size="13">Templates</text>
  <text x="40" y="208" fill="#93a3bd" font-size="13">About &amp; Docs</text>
  <rect x="20" y="600" width="200" height="92" rx="12" fill="#0f1a2e" stroke="#1f2c45"/>
  <text x="36" y="626" fill="#64748b" font-size="10" letter-spacing="1">OPSDECK CONTRACT</text>
  <text x="36" y="648" fill="#e8eef9" font-size="13" font-weight="600">Stable JSON output</text>
  <text x="36" y="672" fill="#93a3bd" font-size="10">Normalized findings + exports</text>

  <text x="276" y="56" fill="#5ec8ff" font-size="11" letter-spacing="2" font-weight="700">REPORT WORKBENCH</text>
  <text x="276" y="86" fill="#e8eef9" font-size="24" font-weight="700">Findings to stakeholder-ready reports</text>
  <rect x="1010" y="44" width="160" height="44" rx="12" fill="url(#accent)"/>
  <text x="1090" y="71" fill="#06101f" font-size="14" font-weight="700" text-anchor="middle">Generate report</text>

  <rect x="276" y="120" width="380" height="560" rx="16" fill="#0f1a2e" stroke="#1f2c45"/>
  <text x="300" y="152" fill="#e8eef9" font-size="14" font-weight="700">Input</text>
  <text x="300" y="180" fill="#64748b" font-size="11">REPORT TYPE</text>
  <rect x="300" y="190" width="78" height="30" rx="9" fill="#102544" stroke="#2d4d76"/>
  <text x="339" y="210" fill="#eaf6ff" font-size="11" text-anchor="middle">Executive</text>
  <rect x="384" y="190" width="74" height="30" rx="9" fill="#0a1322" stroke="#1f2c45"/>
  <text x="421" y="210" fill="#93a3bd" font-size="11" text-anchor="middle">Technical</text>
  <rect x="464" y="190" width="88" height="30" rx="9" fill="#0a1322" stroke="#1f2c45"/>
  <text x="508" y="210" fill="#93a3bd" font-size="11" text-anchor="middle">Remediation</text>
  <rect x="300" y="248" width="332" height="408" rx="10" fill="#060d1a" stroke="#1f2c45"/>
  <text x="316" y="276" fill="#7dd3fc" font-size="11" font-family="monospace">{</text>
  <text x="332" y="298" fill="#cfe3ff" font-size="11" font-family="monospace">"project": "Payments Platform",</text>
  <text x="332" y="318" fill="#cfe3ff" font-size="11" font-family="monospace">"findings": [</text>
  <text x="348" y="338" fill="#cfe3ff" font-size="11" font-family="monospace">{ "title": "Public DB endpoint",</text>
  <text x="360" y="356" fill="#fda4af" font-size="11" font-family="monospace">"severity": "critical",</text>
  <text x="360" y="374" fill="#cfe3ff" font-size="11" font-family="monospace">"source": "Cloudline" }</text>
  <text x="332" y="392" fill="#cfe3ff" font-size="11" font-family="monospace">]</text>
  <text x="316" y="410" fill="#7dd3fc" font-size="11" font-family="monospace">}</text>
  <text x="316" y="642" fill="#34d399" font-size="10" font-family="monospace">Valid JSON · 9 finding(s)</text>

  <rect x="676" y="120" width="120" height="96" rx="14" fill="#0f1a2e" stroke="#1f2c45"/>
  <text x="692" y="144" fill="#64748b" font-size="10">SCORE</text>
  <circle cx="712" cy="180" r="22" fill="none" stroke="#1f2c45" stroke-width="6"/>
  <circle cx="712" cy="180" r="22" fill="none" stroke="#fb923c" stroke-width="6" stroke-dasharray="90 138" transform="rotate(-90 712 180)"/>
  <text x="712" y="185" fill="#e8eef9" font-size="16" font-weight="700" text-anchor="middle">63</text>
  <text x="748" y="178" fill="#fdba74" font-size="11">Grade D</text>
  <text x="748" y="194" fill="#93a3bd" font-size="10">Elevated</text>
  <rect x="808" y="120" width="118" height="96" rx="14" fill="#0f1a2e" stroke="#1f2c45"/>
  <text x="824" y="144" fill="#64748b" font-size="10">FINDINGS</text>
  <text x="824" y="180" fill="#e8eef9" font-size="28" font-weight="700">9</text>
  <text x="824" y="200" fill="#93a3bd" font-size="10">highest critical</text>
  <rect x="938" y="120" width="118" height="96" rx="14" fill="#0f1a2e" stroke="#1f2c45"/>
  <text x="954" y="144" fill="#64748b" font-size="10">MODULES</text>
  <text x="954" y="180" fill="#e8eef9" font-size="28" font-weight="700">7</text>
  <text x="954" y="200" fill="#93a3bd" font-size="10">12 assets</text>
  <rect x="1068" y="120" width="104" height="96" rx="14" fill="#0f1a2e" stroke="#1f2c45"/>
  <text x="1084" y="144" fill="#64748b" font-size="10">QUICK WINS</text>
  <text x="1084" y="180" fill="#e8eef9" font-size="28" font-weight="700">3</text>
  <text x="1084" y="200" fill="#93a3bd" font-size="10">low effort</text>

  <rect x="676" y="232" width="248" height="170" rx="14" fill="#0f1a2e" stroke="#1f2c45"/>
  <text x="692" y="258" fill="#e8eef9" font-size="13" font-weight="700">Severity breakdown</text>
  <g font-size="10" fill="#93a3bd">
    <text x="692" y="286">critical</text><rect x="752" y="278" width="120" height="8" rx="4" fill="#1f2c45"/><rect x="752" y="278" width="50" height="8" rx="4" fill="#f43f5e"/>
    <text x="692" y="312">high</text><rect x="752" y="304" width="120" height="8" rx="4" fill="#1f2c45"/><rect x="752" y="304" width="90" height="8" rx="4" fill="#fb923c"/>
    <text x="692" y="338">medium</text><rect x="752" y="330" width="120" height="8" rx="4" fill="#1f2c45"/><rect x="752" y="330" width="70" height="8" rx="4" fill="#eab308"/>
    <text x="692" y="364">low</text><rect x="752" y="356" width="120" height="8" rx="4" fill="#1f2c45"/><rect x="752" y="356" width="40" height="8" rx="4" fill="#38bdf8"/>
    <text x="692" y="390">info</text><rect x="752" y="382" width="120" height="8" rx="4" fill="#1f2c45"/><rect x="752" y="382" width="24" height="8" rx="4" fill="#94a3b8"/>
  </g>
  <rect x="936" y="232" width="236" height="170" rx="14" fill="#0f1a2e" stroke="#1f2c45"/>
  <text x="952" y="258" fill="#e8eef9" font-size="13" font-weight="700">Module breakdown</text>
  <g font-size="10" fill="#93a3bd">
    <text x="952" y="286">Cloudline</text><rect x="1040" y="278" width="116" height="8" rx="4" fill="#1f2c45"/><rect x="1040" y="278" width="100" height="8" rx="4" fill="#5ec8ff"/>
    <text x="952" y="312">Gatehouse</text><rect x="1040" y="304" width="116" height="8" rx="4" fill="#1f2c45"/><rect x="1040" y="304" width="70" height="8" rx="4" fill="#5ec8ff"/>
    <text x="952" y="338">Stacklint</text><rect x="1040" y="330" width="116" height="8" rx="4" fill="#1f2c45"/><rect x="1040" y="330" width="60" height="8" rx="4" fill="#5ec8ff"/>
    <text x="952" y="364">Tracepack</text><rect x="1040" y="356" width="116" height="8" rx="4" fill="#1f2c45"/><rect x="1040" y="356" width="48" height="8" rx="4" fill="#5ec8ff"/>
  </g>

  <rect x="676" y="418" width="496" height="262" rx="14" fill="#0f1a2e" stroke="#1f2c45"/>
  <text x="700" y="450" fill="#eaf6ff" font-size="12" font-weight="600">Sections</text>
  <text x="780" y="450" fill="#93a3bd" font-size="12">Markdown</text>
  <text x="870" y="450" fill="#93a3bd" font-size="12">HTML preview</text>
  <line x1="676" y1="462" x2="1172" y2="462" stroke="#18233a"/>
  <line x1="700" y1="462" x2="752" y2="462" stroke="#5ec8ff" stroke-width="2"/>
  <rect x="700" y="480" width="448" height="56" rx="10" fill="#070f1d" stroke="#18233a"/>
  <text x="716" y="504" fill="#dbe7fb" font-size="12" font-weight="600">Executive Summary</text>
  <text x="716" y="524" fill="#93a3bd" font-size="10">Payments Platform carries a score of 63/100 (grade D)…</text>
  <rect x="700" y="548" width="448" height="56" rx="10" fill="#070f1d" stroke="#18233a"/>
  <text x="716" y="572" fill="#dbe7fb" font-size="12" font-weight="600">Key Risks</text>
  <text x="716" y="592" fill="#93a3bd" font-size="10">Public DB endpoint · IAM wildcard policy · broad token…</text>
  <rect x="700" y="616" width="448" height="46" rx="10" fill="#070f1d" stroke="#18233a"/>
  <text x="716" y="644" fill="#dbe7fb" font-size="12" font-weight="600">Remediation Priorities</text>
</svg>
