<svg width="1280" height="720" viewBox="0 0 1280 720" xmlns="http://www.w3.org/2000/svg">
  <defs>
    <linearGradient id="bg" x1="0" y1="0" x2="1" y2="1"><stop offset="0" stop-color="#08111f"/><stop offset="1" stop-color="#111827"/></linearGradient>
    <linearGradient id="card" x1="0" y1="0" x2="1" y2="1"><stop offset="0" stop-color="#132033"/><stop offset="1" stop-color="#0f172a"/></linearGradient>
    <linearGradient id="accent" x1="0" y1="0" x2="1" y2="0"><stop offset="0" stop-color="#38bdf8"/><stop offset="1" stop-color="#a78bfa"/></linearGradient>
  </defs>
  <rect width="1280" height="720" rx="32" fill="url(#bg)"/>
  <rect x="36" y="36" width="246" height="648" rx="24" fill="#0b1220" stroke="#1f2a44"/>
  <text x="70" y="92" fill="#e5e7eb" font-family="Inter,Arial" font-size="34" font-weight="700">Dossier</text>
  <text x="70" y="123" fill="#94a3b8" font-family="Inter,Arial" font-size="15">Report workbench</text>
  <rect x="64" y="170" width="190" height="44" rx="13" fill="url(#accent)" opacity="0.22"/>
  <text x="84" y="199" fill="#e0f2fe" font-family="Inter,Arial" font-size="16" font-weight="600">Overview</text>
  <text x="84" y="257" fill="#94a3b8" font-family="Inter,Arial" font-size="16">Templates</text>
  <text x="84" y="311" fill="#94a3b8" font-family="Inter,Arial" font-size="16">Findings</text>
  <text x="84" y="365" fill="#94a3b8" font-family="Inter,Arial" font-size="16">Exports</text>
  <text x="84" y="419" fill="#94a3b8" font-family="Inter,Arial" font-size="16">History</text>
  <rect x="318" y="36" width="926" height="110" rx="24" fill="url(#card)" stroke="#1f2a44"/>
  <text x="354" y="83" fill="#f8fafc" font-family="Inter,Arial" font-size="28" font-weight="700">Executive and technical reporting</text>
  <text x="354" y="115" fill="#94a3b8" font-family="Inter,Arial" font-size="16">Turn analyzer findings into clean summaries, remediation plans, HTML, and Markdown.</text>
  <rect x="318" y="174" width="282" height="154" rx="22" fill="url(#card)" stroke="#1f2a44"/>
  <text x="348" y="218" fill="#94a3b8" font-family="Inter,Arial" font-size="15">Risk score</text>
  <text x="348" y="270" fill="#f8fafc" font-family="Inter,Arial" font-size="54" font-weight="700">72</text>
  <text x="424" y="270" fill="#fbbf24" font-family="Inter,Arial" font-size="24" font-weight="700">B</text>
  <rect x="348" y="292" width="206" height="10" rx="5" fill="#1e293b"/>
  <rect x="348" y="292" width="148" height="10" rx="5" fill="url(#accent)"/>
  <rect x="624" y="174" width="282" height="154" rx="22" fill="url(#card)" stroke="#1f2a44"/>
  <text x="654" y="218" fill="#94a3b8" font-family="Inter,Arial" font-size="15">Findings</text>
  <text x="654" y="270" fill="#f8fafc" font-family="Inter,Arial" font-size="54" font-weight="700">48</text>
  <text x="724" y="270" fill="#f87171" font-family="Inter,Arial" font-size="18" font-weight="700">12 high</text>
  <rect x="930" y="174" width="314" height="154" rx="22" fill="url(#card)" stroke="#1f2a44"/>
  <text x="960" y="218" fill="#94a3b8" font-family="Inter,Arial" font-size="15">Export bundle</text>
  <text x="960" y="262" fill="#f8fafc" font-family="Inter,Arial" font-size="28" font-weight="700">HTML + Markdown</text>
  <text x="960" y="294" fill="#94a3b8" font-family="Inter,Arial" font-size="15">Ready for stakeholders</text>
  <rect x="318" y="356" width="448" height="328" rx="24" fill="url(#card)" stroke="#1f2a44"/>
  <text x="354" y="407" fill="#f8fafc" font-family="Inter,Arial" font-size="22" font-weight="700">Report sections</text>
  <rect x="354" y="438" width="370" height="44" rx="13" fill="#111c2e"/>
  <text x="378" y="466" fill="#e5e7eb" font-family="Inter,Arial" font-size="15">Executive summary</text>
  <rect x="354" y="500" width="370" height="44" rx="13" fill="#111c2e"/>
  <text x="378" y="528" fill="#e5e7eb" font-family="Inter,Arial" font-size="15">Severity distribution</text>
  <rect x="354" y="562" width="370" height="44" rx="13" fill="#111c2e"/>
  <text x="378" y="590" fill="#e5e7eb" font-family="Inter,Arial" font-size="15">Remediation roadmap</text>
  <rect x="790" y="356" width="454" height="328" rx="24" fill="url(#card)" stroke="#1f2a44"/>
  <text x="826" y="407" fill="#f8fafc" font-family="Inter,Arial" font-size="22" font-weight="700">Top risks</text>
  <circle cx="844" cy="466" r="8" fill="#ef4444"/><text x="866" y="472" fill="#e5e7eb" font-family="Inter,Arial" font-size="15">Public admin access on production</text>
  <circle cx="844" cy="522" r="8" fill="#f97316"/><text x="866" y="528" fill="#e5e7eb" font-family="Inter,Arial" font-size="15">Secret-like values in pipeline variables</text>
  <circle cx="844" cy="578" r="8" fill="#f59e0b"/><text x="866" y="584" fill="#e5e7eb" font-family="Inter,Arial" font-size="15">Missing runtime health checks</text>
</svg>
